<svg width="80" height="79" viewBox="0 0 80 79" fill="none" xmlns="http://www.w3.org/2000/svg">
<path d="M72.5997 42.5399C73.3156 42.5107 73.9225 42.7715 74.2872 43.1036C74.6109 43.3984 74.7145 43.6978 74.684 44.0396C74.2128 49.3262 72.1574 53.6622 68.976 58.5776C65.0323 64.6709 59.2971 69.3923 52.5596 72.092C45.8222 74.7917 38.4137 75.337 31.3535 73.653C24.2934 71.9689 17.9287 68.1383 13.1352 62.6881C8.34175 57.238 5.35514 50.4362 4.58639 43.2188C3.81763 36.0015 5.30451 28.7232 8.84242 22.3856C12.3803 16.0481 17.7954 10.9627 24.3424 7.82928C29.4145 5.40175 33.1029 4.44834 39.0661 4.52724C39.8826 4.53804 40.8651 5.38205 40.6317 6.75105C40.4647 7.7303 39.2692 9.07924 36.9959 9.26756C33.341 9.5703 29.7499 10.535 26.4038 12.1365C20.7472 14.8438 16.0686 19.2375 13.0119 24.7132C9.9551 30.1888 8.67044 36.4773 9.33464 42.7131C9.99885 48.9489 12.5793 54.8256 16.7208 59.5345C20.8624 64.2435 26.3615 67.5532 32.4615 69.0082C38.5614 70.4632 44.9624 69.992 50.7835 67.6595C56.6047 65.327 61.5599 61.2477 64.9673 55.9831C66.8812 53.0259 68.254 49.7764 69.0442 46.3856C69.6391 43.8331 71.3513 42.591 72.5997 42.5399Z" stroke="white" stroke-width="8.77778"/>
<circle cx="58" cy="11" r="5" fill="white"/>
<circle cx="71" cy="23" r="5" fill="white"/>
</svg>
