<svg width="111" height="18" viewBox="0 0 111 18" fill="none" xmlns="http://www.w3.org/2000/svg">
<path d="M13.9329 15.8471C13.9329 16.2689 13.6693 16.6494 13.264 16.7663C12.0564 17.1143 10.6992 17.2884 9.19249 17.2884C7.43165 17.2884 5.91303 16.9539 4.63661 16.2849C3.36019 15.6082 2.38366 14.6509 1.707 13.413C1.03804 12.1673 0.703552 10.7333 0.703552 9.11082C0.703552 7.36536 1.08033 5.81213 1.83387 4.45113C2.58742 3.09013 3.65238 2.04055 5.02876 1.30238C6.40514 0.556523 7.98913 0.183594 9.78072 0.183594C10.944 0.183594 12.0767 0.298044 13.1789 0.526945C13.6252 0.619636 13.9329 1.02105 13.9329 1.4769V3.53845C13.9329 4.31574 13.0392 4.84083 12.2836 4.65874V4.65874C11.6454 4.50496 10.9995 4.42806 10.3459 4.42806C8.99257 4.42806 7.92377 4.81637 7.13946 5.59299C6.36285 6.3696 5.97454 7.42303 5.97454 8.75327C5.97454 10.0758 6.36285 11.1216 7.13946 11.8905C7.92377 12.6517 8.96951 13.0323 10.2767 13.0323C10.9912 13.0323 11.7097 12.9246 12.4322 12.7091C13.1446 12.4967 13.9329 12.9843 13.9329 13.7277V15.8471Z" fill="white"/>
<path d="M32.8846 17C32.4584 17 32.0791 16.7299 31.9396 16.3272L30.9385 13.436C30.7001 12.7363 30.3887 12.1865 30.0042 11.7867C29.6275 11.3868 29.2161 11.1869 28.7701 11.1869H28.574V16C28.574 16.5523 28.1263 17 27.574 17H24.5914C24.0391 17 23.5914 16.5523 23.5914 16V1.46041C23.5914 0.908122 24.0391 0.460407 24.5914 0.460407H30.2119C32.5263 0.460407 32.5 0.5 34 1C35.1073 1.75355 36.1633 2.5 36.5 5C36.5 6.13801 36.1459 7.23107 35.5 8C34.8618 8.76893 34.4333 9.19156 33.1645 9.53758V9.58371C33.8643 9.79901 34.4448 10.1489 34.9061 10.6333C35.3752 11.1177 35.7943 11.8367 36.1633 12.7901L37.2641 15.6397C37.5172 16.2949 37.0337 17 36.3313 17H32.8846ZM31.6997 5.70833C31.6997 5.1547 31.5306 4.71641 31.1922 4.39346C30.8539 4.07051 30.3233 3.90904 29.6006 3.90904H28.574V7.69216H29.4737C30.1426 7.69216 30.6809 7.50377 31.0884 7.127C31.496 6.75022 31.6997 6.27733 31.6997 5.70833Z" fill="white"/>
<path d="M47.8022 17C47.2499 17 46.8022 16.5523 46.8022 16V1.46041C46.8022 0.908122 47.2499 0.460407 47.8022 0.460407H56.102C56.6542 0.460407 57.102 0.908122 57.102 1.46041V3.35886C57.102 3.91115 56.6542 4.35886 56.102 4.35886H51.7848V6.76944H55.779C56.3313 6.76944 56.779 7.21716 56.779 7.76944V9.6679C56.779 10.2202 56.3313 10.6679 55.779 10.6679H51.7848V13.1015H56.4826C57.0349 13.1015 57.4826 13.5493 57.4826 14.1015V16C57.4826 16.5523 57.0349 17 56.4826 17H47.8022Z" fill="white"/>
<path d="M85.9474 16.2448C85.8353 16.6888 85.4358 17 84.9778 17H81.2484C80.7872 17 80.3859 16.6847 80.2768 16.2367L78.1675 7.57682C78.0983 7.30769 78.0214 6.63873 77.9368 5.56992H77.8906C77.7753 6.5157 77.6638 7.18466 77.5562 7.57682L75.2726 16.2545C75.157 16.6938 74.7598 17 74.3055 17H70.2605C69.7975 17 69.3951 16.6823 69.2877 16.232L65.8201 1.69239C65.6702 1.06392 66.1468 0.460407 66.7929 0.460407H70.1255C70.6234 0.460407 71.0455 0.826698 71.1155 1.31964L72.3774 10.195C72.4005 10.318 72.4351 10.6756 72.4813 11.2677L72.5505 12.225H72.6197C72.635 12.0251 72.6812 11.6867 72.7581 11.21C72.835 10.7256 72.908 10.3642 72.9772 10.1258L75.3297 1.2054C75.4455 0.766342 75.8426 0.460407 76.2967 0.460407H80.152C80.6227 0.460407 81.0297 0.788739 81.1293 1.24884L83.0809 10.2642L83.2308 11.2446L83.3462 12.2019H83.3923L83.4269 11.7982L83.5769 10.195L84.8922 1.3139C84.9648 0.823549 85.3857 0.460407 85.8814 0.460407H88.6482C89.2997 0.460407 89.7773 1.07347 89.6178 1.70517L85.9474 16.2448Z" fill="white"/>
<path d="M110.386 11.9943C110.386 13.0939 110.09 14.0512 109.498 14.8662C108.914 15.6813 108.091 16.2887 107.03 16.6886C105.969 17.0884 104.692 17.2884 103.201 17.2884C101.72 17.2884 100.346 17.0743 99.0794 16.6462C98.6939 16.5159 98.4487 16.1457 98.4487 15.7388V13.8524C98.4487 13.0333 99.4047 12.5326 100.152 12.8688C100.345 12.9558 100.542 13.0372 100.744 13.1131C101.582 13.4207 102.362 13.5744 103.085 13.5744C103.631 13.5744 104.054 13.4783 104.354 13.2861C104.654 13.0862 104.804 12.7978 104.804 12.4211C104.804 12.1519 104.727 11.9174 104.573 11.7175C104.427 11.5099 104.2 11.3176 103.893 11.1408C103.593 10.9639 103.031 10.7217 102.209 10.4142C99.5482 9.39148 98.218 7.73829 98.218 5.45458C98.218 3.85521 98.8254 2.5788 100.04 1.62533C101.255 0.664172 102.885 0.183594 104.931 0.183594C105.507 0.183594 106.038 0.206662 106.522 0.252797C107.007 0.298933 107.445 0.356602 107.837 0.425805C108.086 0.468886 108.396 0.535805 108.767 0.626562C109.207 0.734017 109.51 1.13234 109.51 1.58464V3.34106C109.51 4.10063 108.689 4.58848 107.972 4.33845C107.107 4.0368 106.251 3.88597 105.404 3.88597C104.85 3.88597 104.404 3.98978 104.066 4.19739C103.727 4.405 103.558 4.6895 103.558 5.05089C103.558 5.39691 103.693 5.68526 103.962 5.91594C104.239 6.13892 104.812 6.43112 105.68 6.79251C107.395 7.48455 108.606 8.24194 109.314 9.06469C110.029 9.88744 110.386 10.864 110.386 11.9943Z" fill="white"/>
</svg>
