<svg width="15" height="14" viewBox="0 0 15 14" fill="none" xmlns="http://www.w3.org/2000/svg">
<g id="Favorite border" clip-path="url(#clip0_18_4446)">
<path id="Vector" d="M10.525 1.75C9.50998 1.75 8.53582 2.2225 7.89998 2.96917C7.26415 2.2225 6.28998 1.75 5.27498 1.75C3.47832 1.75 2.06665 3.16167 2.06665 4.95833C2.06665 7.16333 4.04998 8.96 7.05415 11.69L7.89998 12.4542L8.74582 11.6842C11.75 8.96 13.7333 7.16333 13.7333 4.95833C13.7333 3.16167 12.3216 1.75 10.525 1.75ZM7.95832 10.8208L7.89998 10.8792L7.84165 10.8208C5.06498 8.30667 3.23332 6.64417 3.23332 4.95833C3.23332 3.79167 4.10832 2.91667 5.27498 2.91667C6.17332 2.91667 7.04832 3.49417 7.35748 4.29333H8.44832C8.75165 3.49417 9.62665 2.91667 10.525 2.91667C11.6917 2.91667 12.5667 3.79167 12.5667 4.95833C12.5667 6.64417 10.735 8.30667 7.95832 10.8208Z" fill="#A3A3A3"/>
</g>
<defs>
<clipPath id="clip0_18_4446">
<rect width="14" height="14" fill="white" transform="translate(0.899902)"/>
</clipPath>
</defs>
</svg>
