<svg width="25" height="25" viewBox="0 0 25 25" fill="none" xmlns="http://www.w3.org/2000/svg">
<path d="M21.4989 9.93652C20.7665 9.93652 20.1219 10.2393 19.6483 10.7129C17.9051 9.50684 15.5565 8.73047 12.954 8.64746L14.3065 2.55371L18.6131 3.52051C18.6131 4.5752 19.4725 5.43457 20.5272 5.43457C21.6014 5.43457 22.4657 4.55078 22.4657 3.49609C22.4657 2.44141 21.6063 1.55762 20.5272 1.55762C19.7753 1.55762 19.1258 2.01172 18.8036 2.63184L14.0477 1.57715C13.8085 1.51367 13.5741 1.68457 13.5106 1.92383L12.0262 8.64258C9.44322 8.75 7.119 9.52637 5.37096 10.7324C4.89732 10.2393 4.22838 9.93652 3.49596 9.93652C0.781112 9.93652 -0.10756 13.5791 2.37779 14.8242C2.2899 15.21 2.25084 15.6201 2.25084 16.0303C2.25084 20.1221 6.86021 23.4375 12.5194 23.4375C18.203 23.4375 22.8124 20.1221 22.8124 16.0303C22.8124 15.6201 22.7684 15.1904 22.661 14.8047C25.0975 13.5547 24.1991 9.93652 21.4989 9.93652ZM6.31822 15.083C6.31822 14.0088 7.1776 13.1445 8.2567 13.1445C9.31139 13.1445 10.1708 14.0039 10.1708 15.083C10.1708 16.1377 9.31139 16.9971 8.2567 16.9971C7.18248 17.002 6.31822 16.1377 6.31822 15.083ZM16.7821 19.6484C15.0047 21.4258 9.9901 21.4258 8.21275 19.6484C8.01744 19.4775 8.01744 19.1748 8.21275 18.9795C8.38365 18.8086 8.68639 18.8086 8.85728 18.9795C10.2147 20.3711 14.7167 20.3955 16.1327 18.9795C16.3036 18.8086 16.6063 18.8086 16.7772 18.9795C16.9774 19.1748 16.9774 19.4775 16.7821 19.6484ZM16.743 17.002C15.6883 17.002 14.829 16.1426 14.829 15.0879C14.829 14.0137 15.6883 13.1494 16.743 13.1494C17.8172 13.1494 18.6815 14.0088 18.6815 15.0879C18.6766 16.1377 17.8172 17.002 16.743 17.002Z" fill="#FF910F"/>
</svg>
