<svg width="24" height="20" viewBox="0 0 24 20" fill="none" xmlns="http://www.w3.org/2000/svg">
<g clip-path="url(#clip0_18_4455)">
<path d="M20.8001 5.92638C20.8143 6.10403 20.8143 6.28173 20.8143 6.45938C20.8143 11.8781 16.2002 18.1218 7.76697 18.1218C5.16885 18.1218 2.75532 17.4492 0.725098 16.2817C1.09424 16.3198 1.44914 16.3325 1.83249 16.3325C3.97625 16.3325 5.9497 15.6853 7.52561 14.5812C5.50959 14.5431 3.8201 13.3629 3.238 11.7386C3.52197 11.7766 3.8059 11.802 4.10407 11.802C4.51578 11.802 4.92753 11.7512 5.31084 11.6624C3.20964 11.2817 1.63369 9.63196 1.63369 7.63958V7.58884C2.24415 7.89341 2.95408 8.08376 3.70648 8.10911C2.47131 7.37306 1.66209 6.11673 1.66209 4.6954C1.66209 3.93399 1.88921 3.23603 2.28676 2.62688C4.54414 5.11419 7.93732 6.73853 11.7422 6.91622C11.6712 6.61165 11.6286 6.29442 11.6286 5.97716C11.6286 3.71825 13.673 1.87817 16.2143 1.87817C17.5347 1.87817 18.7272 2.3731 19.5649 3.17259C20.6013 2.99493 21.5951 2.65228 22.4753 2.18274C22.1346 3.13454 21.4105 3.93403 20.4593 4.44161C21.3822 4.35282 22.2766 4.12435 23.1 3.80712C22.4754 4.61927 21.6945 5.34259 20.8001 5.92638Z" fill="#1DA1F2"/>
</g>
<defs>
<clipPath id="clip0_18_4455">
<rect width="22.375" height="20" fill="white" transform="translate(0.725098)"/>
</clipPath>
</defs>
</svg>
