<svg width="16" height="16" viewBox="0 0 16 16" fill="none" xmlns="http://www.w3.org/2000/svg">
<g clip-path="url(#clip0_16_926)">
<path d="M15.3333 5.33333C15.3333 6.06667 14.7333 6.66667 14 6.66667C13.88 6.66667 13.7667 6.65333 13.66 6.62L11.2867 8.98667C11.32 9.09333 11.3333 9.21333 11.3333 9.33333C11.3333 10.0667 10.7333 10.6667 9.99999 10.6667C9.26666 10.6667 8.66666 10.0667 8.66666 9.33333C8.66666 9.21333 8.67999 9.09333 8.71332 8.98667L7.01332 7.28667C6.90666 7.32 6.78666 7.33333 6.66666 7.33333C6.54666 7.33333 6.42666 7.32 6.31999 7.28667L3.28666 10.3267C3.31999 10.4333 3.33332 10.5467 3.33332 10.6667C3.33332 11.4 2.73332 12 1.99999 12C1.26666 12 0.666656 11.4 0.666656 10.6667C0.666656 9.93333 1.26666 9.33333 1.99999 9.33333C2.11999 9.33333 2.23332 9.34667 2.33999 9.38L5.37999 6.34667C5.34666 6.24 5.33332 6.12 5.33332 6C5.33332 5.26667 5.93332 4.66667 6.66666 4.66667C7.39999 4.66667 7.99999 5.26667 7.99999 6C7.99999 6.12 7.98666 6.24 7.95332 6.34667L9.65332 8.04667C9.75999 8.01333 9.87999 8 9.99999 8C10.12 8 10.24 8.01333 10.3467 8.04667L12.7133 5.67333C12.68 5.56667 12.6667 5.45333 12.6667 5.33333C12.6667 4.6 13.2667 4 14 4C14.7333 4 15.3333 4.6 15.3333 5.33333Z" fill="#A3A3A3"/>
</g>
<defs>
<clipPath id="clip0_16_926">
<rect width="16" height="16" fill="white"/>
</clipPath>
</defs>
</svg>
