<svg width="16" height="16" viewBox="0 0 16 16" fill="none" xmlns="http://www.w3.org/2000/svg">
<g clip-path="url(#clip0_16_1047)">
<path d="M11 8.66658C10.2 8.66658 8.95332 8.89325 7.99999 9.33325C7.04666 8.88658 5.79999 8.66658 4.99999 8.66658C3.55332 8.66658 0.666656 9.38658 0.666656 10.8333V12.6666H15.3333V10.8333C15.3333 9.38658 12.4467 8.66658 11 8.66658ZM8.33332 11.6666H1.66666V10.8333C1.66666 10.4733 3.37332 9.66658 4.99999 9.66658C6.62666 9.66658 8.33332 10.4733 8.33332 10.8333V11.6666ZM14.3333 11.6666H9.33332V10.8333C9.33332 10.5266 9.19999 10.2599 8.98666 10.0199C9.57332 9.81992 10.2933 9.66658 11 9.66658C12.6267 9.66658 14.3333 10.4733 14.3333 10.8333V11.6666ZM4.99999 7.99992C6.28666 7.99992 7.33332 6.95325 7.33332 5.66659C7.33332 4.37992 6.28666 3.33325 4.99999 3.33325C3.71332 3.33325 2.66666 4.37992 2.66666 5.66659C2.66666 6.95325 3.71332 7.99992 4.99999 7.99992ZM4.99999 4.33325C5.73332 4.33325 6.33332 4.93325 6.33332 5.66659C6.33332 6.39992 5.73332 6.99992 4.99999 6.99992C4.26666 6.99992 3.66666 6.39992 3.66666 5.66659C3.66666 4.93325 4.26666 4.33325 4.99999 4.33325ZM11 7.99992C12.2867 7.99992 13.3333 6.95325 13.3333 5.66659C13.3333 4.37992 12.2867 3.33325 11 3.33325C9.71332 3.33325 8.66666 4.37992 8.66666 5.66659C8.66666 6.95325 9.71332 7.99992 11 7.99992ZM11 4.33325C11.7333 4.33325 12.3333 4.93325 12.3333 5.66659C12.3333 6.39992 11.7333 6.99992 11 6.99992C10.2667 6.99992 9.66666 6.39992 9.66666 5.66659C9.66666 4.93325 10.2667 4.33325 11 4.33325Z" fill="#D3D3D3"/>
</g>
<defs>
<clipPath id="clip0_16_1047">
<rect width="16" height="16" fill="white"/>
</clipPath>
</defs>
</svg>
