<svg width="16" height="16" viewBox="0 0 16 16" fill="none" xmlns="http://www.w3.org/2000/svg">
<g clip-path="url(#clip0_16_905)">
<path d="M15.3333 5.33333C15.3333 6.06667 14.7333 6.66667 14 6.66667C13.88 6.66667 13.7667 6.65333 13.66 6.62L11.2867 8.98667C11.32 9.09333 11.3333 9.21333 11.3333 9.33333C11.3333 10.0667 10.7333 10.6667 10 10.6667C9.26667 10.6667 8.66667 10.0667 8.66667 9.33333C8.66667 9.21333 8.68001 9.09333 8.71334 8.98667L7.01334 7.28667C6.90667 7.32 6.78667 7.33333 6.66667 7.33333C6.54667 7.33333 6.42667 7.32 6.32 7.28667L3.28667 10.3267C3.32 10.4333 3.33334 10.5467 3.33334 10.6667C3.33334 11.4 2.73334 12 2.00001 12C1.26667 12 0.666672 11.4 0.666672 10.6667C0.666672 9.93333 1.26667 9.33333 2.00001 9.33333C2.12001 9.33333 2.23334 9.34667 2.34001 9.38L5.38 6.34667C5.34667 6.24 5.33334 6.12 5.33334 6C5.33334 5.26667 5.93334 4.66667 6.66667 4.66667C7.40001 4.66667 8.00001 5.26667 8.00001 6C8.00001 6.12 7.98667 6.24 7.95334 6.34667L9.65334 8.04667C9.76 8.01333 9.88 8 10 8C10.12 8 10.24 8.01333 10.3467 8.04667L12.7133 5.67333C12.68 5.56667 12.6667 5.45333 12.6667 5.33333C12.6667 4.6 13.2667 4 14 4C14.7333 4 15.3333 4.6 15.3333 5.33333Z" fill="black"/>
</g>
<defs>
<clipPath id="clip0_16_905">
<rect width="16" height="16" fill="white"/>
</clipPath>
</defs>
</svg>
